<svg id="Calque_1" data-name="Calque 1" xmlns="http://www.w3.org/2000/svg" xmlns:xlink="http://www.w3.org/1999/xlink" viewBox="0 0 1002.64 1000"><defs><style>.cls-1{fill-rule:evenodd;fill:url(#Dégradé_sans_nom_14);}</style><linearGradient id="Dégradé_sans_nom_14" x1="-2.64" y1="500" x2="1000" y2="500" gradientUnits="userSpaceOnUse"><stop offset="0" stop-color="#ffef26"/><stop offset="0.02" stop-color="#ffea21"/><stop offset="0.14" stop-color="#fed70f"/><stop offset="0.26" stop-color="#fdcc04"/><stop offset="0.39" stop-color="#fdc800"/><stop offset="0.67" stop-color="#f18f34"/><stop offset="0.89" stop-color="#e95f32"/><stop offset="1" stop-color="#e3312d"/></linearGradient></defs><path class="cls-1" d="M918.71,81a278.46,278.46,0,0,0-425,38.48,20.5,20.5,0,0,0-3.57,14c8.69,75.38,64.61,158,136.91,226.51C702.85,431.66,795.73,487,871.54,502l16.35-3.69a278.55,278.55,0,0,0,30.74-26.46A275.49,275.49,0,0,0,918.71,81ZM35.92,924.74A150.81,150.81,0,0,0,7.3,969c-14.23,33.13-16.77,38,16.76,22.63A199.23,199.23,0,0,0,59.14,971a21.34,21.34,0,0,1,25-.47c11,7.78,22,12.12,34.14,13.67,17,2.2,34.1-1.54,55.77-9,70.74-24.25,314.52-222.66,466.3-346.2,36.14-29.39,66.85-54.43,89.72-72.52a21.06,21.06,0,0,1,11.73-4.43q8.09-.55,16.13-1.58c21-2.68,25.87-30.36,7-39.93-57.51-29.19-116.06-70.88-167.12-119.17C552.61,348.69,513,300.55,484.69,250.9c-10.45-18.31-38.38-11.73-39.62,9.29,0,.25,0,.5,0,.75a21,21,0,0,1-4.53,12c-15.72,19.64-37.43,46.33-63.32,78.2C253.45,503.27,37.31,768.81,20.3,825c-6.05,20-9.41,36.7-7.53,53.06,2,16.76,8.92,31.66,23.15,46.71ZM671.5,548.11c-17,13.75-36.88,29.94-58.64,47.6C463.45,717.3,223.6,912.62,159.89,934.43c-15.78,5.37-27.23,8.22-36.14,7.08-7.77-1-15.54-5.7-25.27-15.39l-28.95-28.8c-8.75-8.71-12.84-16.28-13.74-24.09-1.06-9.36,1.47-21,6-35.81,14.56-48,227.18-309.33,349-459q6.8-8.39,13.22-16.27a21.2,21.2,0,0,1,36.42,6.28A277.5,277.5,0,0,0,671.5,548.11Z" transform="translate(2.64)"/></svg>