<?xml version="1.0" encoding="utf-8"?>
<!-- Generator: Adobe Illustrator 26.0.2, SVG Export Plug-In . SVG Version: 6.00 Build 0)  -->
<svg version="1.1" id="Calque_1" xmlns="http://www.w3.org/2000/svg" xmlns:xlink="http://www.w3.org/1999/xlink" x="0px" y="0px"
	 viewBox="0 0 5791.2 1078" style="enable-background:new 0 0 5791.2 1078;" xml:space="preserve">
<style type="text/css">
	.st0{fill-rule:evenodd;clip-rule:evenodd;fill:url(#SVGID_1_);}
	.st1{enable-background:new    ;}
	.st2{fill:#FFFFFF;}
</style>
<linearGradient id="SVGID_1_" gradientUnits="userSpaceOnUse" x1="40.8365" y1="526.181" x2="1043.2191" y2="526.181" gradientTransform="matrix(1 0 0 1 2.64 0)">
	<stop  offset="0" style="stop-color:#FFEF26"/>
	<stop  offset="2.000000e-02" style="stop-color:#FFEA21"/>
	<stop  offset="0.14" style="stop-color:#FED70F"/>
	<stop  offset="0.26" style="stop-color:#FDCC04"/>
	<stop  offset="0.39" style="stop-color:#FDC800"/>
	<stop  offset="0.67" style="stop-color:#F18F34"/>
	<stop  offset="0.89" style="stop-color:#E95F32"/>
	<stop  offset="1" style="stop-color:#E3312D"/>
</linearGradient>
<path class="st0" d="M964.8,107.2C855.7-1.2,679.4-0.8,570.9,108.3c-11.5,11.5-21.9,24.1-31.2,37.4c-2.8,4.1-4.1,9.1-3.6,14
	c8.7,75.4,64.6,158,136.9,226.5c75.8,71.7,168.7,127,244.5,142l16.3-3.7c10.9-8.1,21.1-16.9,30.7-26.5
	c108-107.2,108.5-281.6,1.3-389.6C965.6,108,965.2,107.6,964.8,107.2z M82,950.9c-12.1,13-21.8,27.9-28.6,44.3
	c-14.2,33.1-16.8,38,16.8,22.6c12.4-5.7,24.1-12.6,35.1-20.6c7.4-5.5,17.4-5.7,25-0.5c11,7.8,22,12.1,34.1,13.7
	c17,2.2,34.1-1.5,55.8-9c70.6-24.2,314.4-222.7,466.2-346.2c36.1-29.4,66.8-54.4,89.7-72.5c3.4-2.6,7.5-4.2,11.7-4.4
	c5.4-0.4,10.8-0.9,16.1-1.6c21-2.7,25.9-30.4,7-39.9c-57.5-29.2-116.1-70.9-167.1-119.2c-45.2-42.7-84.8-90.8-113.1-140.5
	c-10.5-18.3-38.4-11.7-39.6,9.3c0,0.2,0,0.5,0,0.8c-0.2,4.4-1.8,8.6-4.5,12c-15.7,19.6-37.4,46.3-63.3,78.2
	C299.5,529.5,83.4,795,66.3,851.2c-6,20-9.4,36.7-7.5,53.1C60.8,921,67.7,935.9,82,950.9L82,950.9z M717.5,574.3
	c-17,13.8-36.9,29.9-58.6,47.6c-149.4,121.6-389.3,316.9-453,338.7c-15.8,5.4-27.2,8.2-36.1,7.1c-7.8-1-15.5-5.7-25.3-15.4
	l-28.9-28.8c-8.8-8.7-12.8-16.3-13.7-24.1c-1.1-9.4,1.5-21,6-35.8c14.6-48,227.2-309.3,349-459c4.5-5.6,8.9-11,13.2-16.3
	c7.4-9.1,20.7-10.5,29.8-3.1c3,2.5,5.3,5.7,6.6,9.3C539.7,487.9,620.2,556.4,717.5,574.3z"/>
<rect x="2317.4" y="-616.2" style="fill:none;" width="4.5" height="8.9"/>
<g style="display:none;">
</g>
<g class="st1">
	<path class="st2" d="M1241.8,336.7v366.7h171v54.5h-237.1V336.7H1241.8z"/>
	<path class="st2" d="M1512.2,336.7v68.4h-64.8v-68.4H1512.2z M1512.2,442.4v315.4h-64.8V442.4H1512.2z"/>
	<path class="st2" d="M1811.9,443.3v335.2c0,14.7-2.9,27.6-8.8,38.7c-5.8,11.1-13.9,20.4-24.1,27.9c-10.2,7.2-22.3,12.6-36.2,16.2
		c-14,3.6-28.9,5.4-44.8,5.4c-35.4,0-63.1-7-83-20.9c-20-14-29.9-34.4-29.9-61.4v-7.7h65.2v8.6c0,5.1,1.3,9.5,3.8,13.3
		c2.5,3.7,6.1,6.8,10.6,9.2c4.5,2.4,9.6,4.1,15.3,5.2c5.7,1,11.7,1.6,18,1.6c15.3,0,27.7-3.1,37.4-9.2c9.6-6.2,14.4-15.4,14.4-27.7
		v-51.8c-8.7,10.8-19.5,18.2-32.4,22.3c-12.9,4-26.3,6.1-40,6.1c-18.6,0-35-2.8-49.1-8.3c-14.1-5.6-25.8-14.5-35.1-26.8
		c-9.3-12.6-16.3-28.7-20.9-48.2c-4.7-19.5-7-43.2-7-71.1c0-30.9,2.3-56.8,7-77.8c4.6-21,11.6-37.9,20.9-50.9
		c9.3-12.9,21-22.2,35.1-27.9c14.1-5.7,30.4-8.6,49.1-8.6c16.2,0,30.4,2.4,42.8,7.2c12.3,4.8,22.2,12.5,29.7,23v-21.6H1811.9z
		 M1626.1,599.9c0,21.9,1.4,39.5,4,52.7c2.7,13.2,6.6,23.4,11.7,30.6c5.1,7.2,11.3,11.9,18.7,14.2c7.3,2.2,15.7,3.4,25,3.4
		c9,0,17.4-1.5,25.2-4.5c7.8-3,14.7-7.2,20.7-12.6c5.7-5.7,10.2-12.5,13.5-20.5c3.3-7.9,4.9-16.9,4.9-26.8v-82.8
		c0-9.9-1.7-18.8-4.9-26.8c-3.3-7.9-7.8-14.8-13.5-20.5c-6-5.7-12.9-10-20.7-13.1c-7.8-3-16.2-4.5-25.2-4.5c-9.3,0-17.6,1.1-25,3.4
		c-7.4,2.2-13.6,7.3-18.7,15.1c-5.1,7.8-9,19.1-11.7,33.7C1627.4,555.7,1626.1,575.3,1626.1,599.9z"/>
	<path class="st2" d="M1939.3,337.1l0.6,124.6c11.4-8.4,23.8-15,37.2-19.8c13.4-4.8,27.7-7.2,43.1-7.2c11.4,0,22.6,1.8,33.6,5.4
		c11,3.6,20.7,9,29.1,16.2s15.2,16.2,20.3,27c5.1,10.8,7.7,23.6,7.7,38.2v236.2h-64.8V527c0-11.7-3.2-20.9-9.7-27.7
		c-6.5-6.8-15.9-10.1-28.2-10.1c-11.4,0-23,2.4-34.8,7.2c-11.7,4.8-23,10.7-33.9,17.5v243.9h-64.8V337.1H1939.3z"/>
	<path class="st2" d="M2200.7,442.4v-80.1h64.8v80.1h63.9v51.8h-63.9v189.9c0,11.4,1.9,19.3,5.8,23.6c3.9,4.3,10.9,6.5,21.2,6.5
		c12,0,24.8-0.9,38.2-2.7v50c-8.7,1.5-17.7,2.5-27,3.2c-9.3,0.6-17.9,0.9-25.7,0.9c-27.9,0.3-47.8-5.9-59.6-18.7
		c-11.9-12.8-17.8-33.7-17.8-62.8V494.2h-48.2v-51.8H2200.7z"/>
	<path class="st2" d="M2436.5,442.4l0.6,21.6c11.4-9,23.8-16.1,37.2-21.4c13.4-5.2,27.7-7.9,43.1-7.9c11.4,0,22.6,1.8,33.6,5.4
		s20.7,9,29.1,16.2s15.2,16.2,20.3,27c5.1,10.8,7.7,23.6,7.7,38.2v236.2h-64.8V527c0-11.7-3.2-20.9-9.7-27.7
		c-6.5-6.8-15.9-10.1-28.2-10.1c-10.8,0-22.3,2.7-34.3,8.1c-12.1,5.4-23.5,11.7-34.3,18.9v241.6h-64.8V442.4H2436.5z"/>
	<path class="st2" d="M2734.9,336.7v68.4h-64.8v-68.4H2734.9z M2734.9,442.4v315.4h-64.8V442.4H2734.9z"/>
	<path class="st2" d="M2857.7,442.4l0.6,21.6c11.4-9,23.8-16.1,37.2-21.4c13.4-5.2,27.7-7.9,43.1-7.9c11.4,0,22.6,1.8,33.6,5.4
		s20.7,9,29.1,16.2s15.2,16.2,20.3,27c5.1,10.8,7.7,23.6,7.7,38.2v236.2h-64.8V527c0-11.7-3.2-20.9-9.7-27.7
		c-6.5-6.8-15.9-10.1-28.2-10.1c-10.8,0-22.3,2.7-34.3,8.1c-12.1,5.4-23.5,11.7-34.3,18.9v241.6h-64.8V442.4H2857.7z"/>
	<path class="st2" d="M3332.9,443.3v335.2c0,14.7-2.9,27.6-8.8,38.7c-5.8,11.1-13.9,20.4-24.1,27.9c-10.2,7.2-22.3,12.6-36.2,16.2
		c-13.9,3.6-28.9,5.4-44.8,5.4c-35.4,0-63.1-7-83-20.9c-20-14-29.9-34.4-29.9-61.4v-7.7h65.2v8.6c0,5.1,1.3,9.5,3.8,13.3
		c2.5,3.7,6.1,6.8,10.6,9.2c4.5,2.4,9.6,4.1,15.3,5.2c5.7,1,11.7,1.6,18,1.6c15.3,0,27.7-3.1,37.4-9.2c9.6-6.2,14.4-15.4,14.4-27.7
		v-51.8c-8.7,10.8-19.5,18.2-32.4,22.3c-12.9,4-26.3,6.1-40.1,6.1c-18.6,0-35-2.8-49.1-8.3c-14.1-5.6-25.8-14.5-35.1-26.8
		c-9.3-12.6-16.3-28.7-20.9-48.2c-4.7-19.5-7-43.2-7-71.1c0-30.9,2.3-56.8,7-77.8c4.6-21,11.6-37.9,20.9-50.9
		c9.3-12.9,21-22.2,35.1-27.9c14.1-5.7,30.4-8.6,49.1-8.6c16.2,0,30.4,2.4,42.8,7.2c12.3,4.8,22.2,12.5,29.7,23v-21.6H3332.9z
		 M3147.1,599.9c0,21.9,1.4,39.5,4.1,52.7c2.7,13.2,6.6,23.4,11.7,30.6c5.1,7.2,11.3,11.9,18.7,14.2c7.3,2.2,15.7,3.4,25,3.4
		c9,0,17.4-1.5,25.2-4.5c7.8-3,14.7-7.2,20.7-12.6c5.7-5.7,10.2-12.5,13.5-20.5c3.3-7.9,4.9-16.9,4.9-26.8v-82.8
		c0-9.9-1.7-18.8-4.9-26.8c-3.3-7.9-7.8-14.8-13.5-20.5c-6-5.7-12.9-10-20.7-13.1c-7.8-3-16.2-4.5-25.2-4.5c-9.3,0-17.6,1.1-25,3.4
		c-7.4,2.2-13.6,7.3-18.7,15.1c-5.1,7.8-9,19.1-11.7,33.7C3148.4,555.7,3147.1,575.3,3147.1,599.9z"/>
	<path class="st2" d="M3683.5,757.9h-66.1V391.1h-118.8v-54.5h303.8v54.5h-118.8V757.9z"/>
	<path class="st2" d="M3970.6,757.9v-19.8c-10.5,7.8-22.4,14.4-35.5,19.8c-13.2,5.4-27.9,8.1-44.1,8.1c-15.6,0-28.9-2.3-39.8-7
		c-11-4.7-19.7-11.2-26.3-19.6c-6.9-8.7-11.8-19.1-14.6-31c-2.9-12-4-25.4-3.4-40c0.3-19.2,4.3-35.5,11.9-48.8
		c7.7-13.3,18.5-24.4,32.6-33.1c14.1-8.7,31.2-15.1,51.3-19.3c20.1-4.2,42.8-6.8,67.9-7.7v-25.6c0-8.1-0.6-15.4-1.8-21.8
		c-1.2-6.4-3.3-11.8-6.3-16c-3.3-4.2-7.8-7.4-13.4-9.7c-5.7-2.2-13-3.4-21.9-3.4c-13.7,0-24.5,3.5-32.2,10.3
		c-7.8,6.9-12.1,17.9-13,32.9h-64.8c0.6-16.2,3.7-30.2,9.4-41.9c5.7-11.7,13.5-21.3,23.4-28.8c9.6-7.5,21.1-13,34.4-16.6
		c13.3-3.6,28.1-5.4,44.3-5.4c19.8,0,36.5,2.3,50.2,7c13.6,4.7,24.7,10.7,33.1,18.2c8.1,7.8,14,16.6,17.8,26.3
		c3.7,9.8,5.6,19.9,5.6,30.4v242.5H3970.6z M3901.3,716.5c10.5,0,21.6-2.6,33.3-7.6c11.7-5.1,23.7-11.7,36-19.8v-77.8
		c-14.7,0.6-28.1,2-40.3,4c-12.2,2.1-22.6,5.3-31.3,9.5c-8.7,4.2-15.5,9.8-20.2,16.9c-4.8,7.1-7.2,16-7.2,26.8
		c-0.3,17.7,2,30.1,7,37.3C3883.5,712.9,3891.1,716.5,3901.3,716.5z"/>
	<path class="st2" d="M4165.4,336.7v421.2h-64.8V336.7H4165.4z"/>
	<path class="st2" d="M4287.4,336.7V563l107.6-120.6h74.2l-134.6,149.8l145.8,165.6h-74.2l-118.8-132.3v132.3h-64.8V336.7H4287.4z"
		/>
	<path class="st2" d="M4541.2,673.3c0,27.3,15.9,41,47.7,41c8.4,0,16-0.7,22.9-2c6.9-1.4,12.9-3.5,18-6.5c4.8-3.3,8.6-7.7,11.2-13
		c2.7-5.4,4.1-12.2,4.1-20.2c0-6-1.3-11.2-3.8-15.8c-2.6-4.5-5.9-8.5-10.1-12.2c-4.5-3.6-9.6-6.8-15.3-9.5c-5.7-2.7-11.7-5.2-18-7.6
		l-38.7-13.5c-25.5-9-44.9-20.9-58-35.8c-13.2-14.8-19.8-33.4-19.8-55.6c0-13.5,2.6-25.6,7.9-36.4c5.2-10.8,12.7-20.1,22.3-27.9
		c9.6-7.5,21.2-13.3,34.7-17.3s28.3-6.1,44.5-6.1c35.1,0,62.3,6.9,81.7,20.7c19.3,13.8,29,34.2,29,61.2V532h-63v-14.4
		c0-10.5-4.2-18.2-12.6-23.2c-8.4-4.9-19.8-7.4-34.2-7.4c-13.2,0-24.3,2.7-33.3,8.1c-9,5.4-13.5,14.6-13.5,27.4c0,6,1,11.1,3.1,15.3
		c2.1,4.2,5.2,8,9.5,11.2c4.2,3.3,9.5,6.5,16,9.4c6.4,3,14.2,6.2,23.2,9.5l37.8,14c9.9,3.9,19.3,8.8,28.3,14.6s16.9,12.4,23.9,19.6
		c6.6,7.5,11.9,15.8,16,24.8c4,9,6.1,18.6,6.1,28.8c0,16.8-2.9,31.3-8.8,43.4c-5.8,12.2-14,22.1-24.5,29.9
		c-10.8,7.8-23.6,13.6-38.5,17.3c-14.8,3.7-31.3,5.6-49.3,5.6c-19.5,0-36.1-2.5-49.7-7.4c-13.7-5-24.8-11.6-33.5-20
		c-9-8.7-15.5-18.8-19.6-30.1c-4-11.4-6.1-23.4-6.1-36v-14h62.5V673.3z"/>
	<path class="st2" d="M5013,336.7c40.6,0,70.7,10.7,90.4,32.2c19.7,21.5,29.5,52.3,29.5,92.5c-0.9,39.3-11.1,70-30.4,92
		c-19.4,22-49.2,33.1-89.5,33.1h-67.7v171.5h-66.2V336.7H5013z M5010.5,532c17.7,0,31.7-5.6,42.1-16.9c10.3-11.2,15.5-29,15.5-53.3
		c0-23.4-5.2-41-15.5-52.9c-10.4-11.8-24.4-17.8-42.1-17.8h-65.2V532H5010.5z"/>
	<path class="st2" d="M5287.5,765.5c-20.1,0-37.8-3-53-9c-15.2-6-27.9-15.5-38.1-28.3c-10.2-13.2-17.9-30.3-23-51.3
		c-5.1-21-7.7-46.6-7.7-77c0-30,2.3-55.4,7-76.3c4.7-20.8,11.9-37.9,21.9-51.1c9.9-13.2,22.5-22.8,37.9-28.8c15.3-6,33.7-9,55-9
		c21,0,39.3,3,54.8,9c15.5,6,28.3,15.6,38.5,28.8c9.9,13.2,17.3,30.2,22.1,51.1c4.8,20.9,7.2,46.3,7.2,76.3c0,30.3-2.6,56-7.7,77
		c-5.1,21-12.8,38.1-23,51.3c-10.2,12.9-23,22.3-38.3,28.3C5325.8,762.5,5307.9,765.5,5287.5,765.5z M5230.6,599.9
		c0,21.3,0.8,39.2,2.5,53.5c1.6,14.4,4.6,25.9,8.8,34.7c4.2,8.4,10,14.4,17.3,18c7.3,3.6,16.7,5.4,28.1,5.4
		c11.7,0,21.3-1.8,28.8-5.4c7.5-3.6,13.5-9.6,18-18c4.2-8.7,7.1-20.2,8.8-34.7c1.6-14.4,2.5-32.2,2.5-53.5c0-21-0.8-38.5-2.5-52.6
		c-1.7-14.1-4.6-25.5-8.8-34.2c-4.5-8.7-10.5-14.9-18-18.7c-7.5-3.7-17.1-5.6-28.8-5.6c-11.4,0-20.8,1.9-28.1,5.6
		c-7.4,3.8-13.1,10-17.3,18.7c-4.2,8.7-7.1,20.1-8.8,34.2C5231.4,561.4,5230.6,578.9,5230.6,599.9z"/>
	<path class="st2" d="M5528,336.7v421.2h-64.8V336.7H5528z"/>
	<path class="st2" d="M5656.7,336.7v421.2h-64.8V336.7H5656.7z"/>
</g>
</svg>
