<svg id="Calque_1" data-name="Calque 1" xmlns="http://www.w3.org/2000/svg" xmlns:xlink="http://www.w3.org/1999/xlink" viewBox="0 0 5613.22 999.99">
    <defs>
        <style>.cls-1{fill-rule:evenodd;fill:url(#Dégradé_sans_nom);}.cls-2{isolation:isolate;}.cls-3{fill:#1d1d1b;}</style>
        <linearGradient id="Dégradé_sans_nom" x1="40.84" y1="526.18" x2="1043.22" y2="526.18" gradientTransform="translate(2.64)" gradientUnits="userSpaceOnUse">
            <stop offset="0" stop-color="#ffef26" />
            <stop offset="0.02" stop-color="#ffea21" />
            <stop offset="0.14" stop-color="#fed70f" />
            <stop offset="0.26" stop-color="#fdcc04" />
            <stop offset="0.39" stop-color="#fdc800" />
            <stop offset="0.67" stop-color="#f18f34" />
            <stop offset="0.89" stop-color="#e95f32" />
            <stop offset="1" stop-color="#e3312d" />
        </linearGradient>
    </defs>
    <path class="cls-1" d="M964.81,107.2c-109.1-108.4-285.4-108-393.9,1.1a278.72,278.72,0,0,0-31.2,37.4,21.15,21.15,0,0,0-3.6,14c8.7,75.4,64.6,158,136.9,226.5,75.8,71.7,168.7,127,244.5,142l16.3-3.7a276.58,276.58,0,0,0,30.7-26.5c108-107.2,108.5-281.6,1.3-389.6A5.3,5.3,0,0,0,964.81,107.2ZM82,950.9a148.37,148.37,0,0,0-28.6,44.3c-14.2,33.1-16.8,38,16.8,22.6a205.58,205.58,0,0,0,35.1-20.6,21.48,21.48,0,0,1,25-.5,74.15,74.15,0,0,0,34.1,13.7c17,2.2,34.1-1.5,55.8-9,70.6-24.2,314.4-222.7,466.2-346.2,36.1-29.4,66.8-54.4,89.7-72.5a21.08,21.08,0,0,1,11.7-4.4c5.4-.4,10.8-.9,16.1-1.6,21-2.7,25.9-30.4,7-39.9-57.5-29.2-116.1-70.9-167.1-119.2-45.2-42.7-84.8-90.8-113.1-140.5-10.5-18.3-38.4-11.7-39.6,9.3v.8a20.84,20.84,0,0,1-4.5,12c-15.7,19.6-37.4,46.3-63.3,78.2C299.51,529.5,83.41,795,66.31,851.2c-6,20-9.4,36.7-7.5,53.1,2,16.7,8.9,31.6,23.2,46.6Zm635.5-376.6c-17,13.8-36.9,29.9-58.6,47.6-149.4,121.6-389.3,316.9-453,338.7-15.8,5.4-27.2,8.2-36.1,7.1-7.8-1-15.5-5.7-25.3-15.4l-28.9-28.8c-8.8-8.7-12.8-16.3-13.7-24.1-1.1-9.4,1.5-21,6-35.8,14.6-48,227.2-309.3,349-459,4.5-5.6,8.9-11,13.2-16.3a21.15,21.15,0,0,1,29.8-3.1,21.81,21.81,0,0,1,6.6,9.3A277.22,277.22,0,0,0,717.51,574.3Z" transform="translate(-43.48 -26.19)" />
    <g class="cls-2">
        <path class="cls-3" d="M1241.8,336.69V703.44h171v54.45H1175.65V336.69Z" transform="translate(-43.48 -26.19)" />
        <path class="cls-3" d="M1512.25,336.69v68.4h-64.8v-68.4Zm0,105.75V757.89h-64.8V442.44Z" transform="translate(-43.48 -26.19)" />
        <path class="cls-3" d="M1811.94,443.34V778.59q0,22-8.77,38.7a81.26,81.26,0,0,1-24.08,27.9q-15.3,10.8-36.22,16.2a178.71,178.71,0,0,1-44.78,5.4q-53.1,0-83-20.92t-29.93-61.43v-7.65h65.25v8.55a23.08,23.08,0,0,0,3.83,13.28,28.85,28.85,0,0,0,10.57,9.22,52.84,52.84,0,0,0,15.3,5.18,99.26,99.26,0,0,0,18,1.57q23,0,37.35-9.22t14.4-27.68V725.94a66.38,66.38,0,0,1-32.4,22.28,132.91,132.91,0,0,1-40,6.07q-27.9,0-49.05-8.32a80.11,80.11,0,0,1-35.1-26.78q-14-18.9-20.92-48.15t-7-71.1q0-46.34,7-77.85t20.92-50.85a79.46,79.46,0,0,1,35.1-27.9q21.15-8.54,49.05-8.55,24.3,0,42.75,7.2a64.6,64.6,0,0,1,29.7,22.95v-21.6Zm-185.85,156.6q0,32.85,4.05,52.65t11.7,30.6q7.65,10.8,18.68,14.18a85.24,85.24,0,0,0,25,3.37,69.6,69.6,0,0,0,25.2-4.5,66.11,66.11,0,0,0,20.7-12.6,62.41,62.41,0,0,0,13.5-20.47,69.27,69.27,0,0,0,4.95-26.78v-82.8a69.22,69.22,0,0,0-4.95-26.77,58,58,0,0,0-34.2-33.53,69.81,69.81,0,0,0-25.2-4.5,85.22,85.22,0,0,0-25,3.38q-11,3.38-18.68,15.07T1630.14,541Q1626.09,563,1626.09,599.94Z" transform="translate(-43.48 -26.19)" />
        <path class="cls-3" d="M1939.29,337.14l.58,124.65a145.92,145.92,0,0,1,37.19-19.8,126.81,126.81,0,0,1,43.06-7.2,107.09,107.09,0,0,1,33.59,5.4,85.12,85.12,0,0,1,29.08,16.2,80.07,80.07,0,0,1,20.29,27q7.65,16.2,7.66,38.25V757.89h-64.8V527q0-17.55-9.71-27.67T2008,489.24a91.73,91.73,0,0,0-34.8,7.2A214.73,214.73,0,0,0,1939.29,514v243.9h-64.8V337.14Z" transform="translate(-43.48 -26.19)" />
        <path class="cls-3" d="M2200.74,442.44v-80.1h64.8v80.1h63.9v51.75h-63.9v189.9q0,17.1,5.85,23.63t21.15,6.52a290.17,290.17,0,0,0,38.25-2.7v50a256.4,256.4,0,0,1-27,3.15q-14,.9-25.65.9-41.85.45-59.63-18.67t-17.77-62.78V494.19h-48.15V442.44Z" transform="translate(-43.48 -26.19)" />
        <path class="cls-3" d="M2436.53,442.44l.58,21.6a145.9,145.9,0,0,1,37.2-21.37,116.73,116.73,0,0,1,43.05-7.88,107.09,107.09,0,0,1,33.59,5.4,85,85,0,0,1,29.08,16.2,80.07,80.07,0,0,1,20.29,27q7.65,16.2,7.66,38.25V757.89h-64.8V527q0-17.55-9.71-27.67t-28.25-10.13q-16.28,0-34.35,8.1a238,238,0,0,0-34.34,18.9V757.89h-64.8V442.44Z" transform="translate(-43.48 -26.19)" />
        <path class="cls-3" d="M2734.88,336.69v68.4h-64.8v-68.4Zm0,105.75V757.89h-64.8V442.44Z" transform="translate(-43.48 -26.19)" />
        <path class="cls-3" d="M2857.73,442.44l.58,21.6a145.84,145.84,0,0,1,37.19-21.37,116.74,116.74,0,0,1,43.06-7.88,107,107,0,0,1,33.58,5.4,84.94,84.94,0,0,1,29.08,16.2,80.09,80.09,0,0,1,20.3,27q7.65,16.2,7.66,38.25V757.89h-64.8V527q0-17.55-9.72-27.67t-28.24-10.13q-16.27,0-34.35,8.1a237.47,237.47,0,0,0-34.34,18.9V757.89h-64.8V442.44Z" transform="translate(-43.48 -26.19)" />
        <path class="cls-3" d="M3332.93,443.34V778.59q0,22-8.78,38.7a81.34,81.34,0,0,1-24.07,27.9q-15.32,10.8-36.23,16.2a178.68,178.68,0,0,1-44.77,5.4q-53.11,0-83-20.92t-29.92-61.43v-7.65h65.25v8.55a23.07,23.07,0,0,0,3.82,13.28,29,29,0,0,0,10.58,9.22,52.73,52.73,0,0,0,15.3,5.18,99.18,99.18,0,0,0,18,1.57q23,0,37.35-9.22t14.4-27.68V725.94a66.47,66.47,0,0,1-32.4,22.28,133,133,0,0,1-40,6.07q-27.91,0-49.05-8.32a80,80,0,0,1-35.1-26.78q-14-18.9-20.93-48.15t-7-71.1q0-46.34,7-77.85t20.93-50.85a79.35,79.35,0,0,1,35.1-27.9q21.14-8.54,49.05-8.55,24.3,0,42.75,7.2a64.7,64.7,0,0,1,29.7,22.95v-21.6Zm-185.85,156.6q0,32.85,4.05,52.65t11.7,30.6q7.64,10.8,18.67,14.18a85.26,85.26,0,0,0,25,3.37,69.64,69.64,0,0,0,25.2-4.5,66.34,66.34,0,0,0,20.7-12.6,62.72,62.72,0,0,0,13.5-20.47,69.46,69.46,0,0,0,4.95-26.78v-82.8a69.4,69.4,0,0,0-4.95-26.77,58,58,0,0,0-34.2-33.53,69.85,69.85,0,0,0-25.2-4.5,85.25,85.25,0,0,0-25,3.38q-11,3.38-18.67,15.07T3151.13,541Q3147.08,563,3147.08,599.94Z" transform="translate(-43.48 -26.19)" />
        <path class="cls-3" d="M3683.47,757.89h-66.15V391.14h-118.8V336.69h303.75v54.45h-118.8Z" transform="translate(-43.48 -26.19)" />
        <path class="cls-3" d="M3970.57,757.89v-19.8a162.63,162.63,0,0,1-35.55,19.8q-19.82,8.1-44.1,8.1-23.4,0-39.83-7t-26.32-19.58a78.21,78.21,0,0,1-14.63-31.05,147,147,0,0,1-3.37-40q.43-28.79,11.92-48.82t32.63-33.08q21.15-13,51.3-19.35t68-7.65V533.79a119.91,119.91,0,0,0-1.8-21.82,39.84,39.84,0,0,0-6.26-16,31.34,31.34,0,0,0-13.44-9.67q-8.49-3.37-21.93-3.38-20.61,0-32.24,10.35t-13,32.85h-64.8q.9-24.3,9.45-41.85a78.77,78.77,0,0,1,23.4-28.8q14.4-11.24,34.42-16.65a170.12,170.12,0,0,1,44.33-5.4q29.7,0,50.17,7T4012,458.64A72.55,72.55,0,0,1,4029.74,485a83.92,83.92,0,0,1,5.63,30.37V757.89Zm-69.3-41.4q15.75,0,33.3-7.65a241.13,241.13,0,0,0,36-19.8V611.19a315.91,315.91,0,0,0-40.28,4q-18.23,3.15-31.27,9.45t-20.25,16.88q-7.2,10.57-7.2,26.77-.45,26.55,7,37.35T3901.27,716.49Z" transform="translate(-43.48 -26.19)" />
        <path class="cls-3" d="M4165.42,336.69v421.2h-64.8V336.69Z" transform="translate(-43.48 -26.19)" />
        <path class="cls-3" d="M4287.36,336.69V563l107.55-120.6h74.25L4334.61,592.29l145.8,165.6h-74.25l-118.8-132.3v132.3h-64.8V336.69Z" transform="translate(-43.48 -26.19)" />
        <path class="cls-3" d="M4541.16,673.29q0,41,47.7,41a119.88,119.88,0,0,0,23-2,56.75,56.75,0,0,0,18-6.53,34,34,0,0,0,11.25-13.05q4.05-8.1,4-20.25a31.41,31.41,0,0,0-3.83-15.75,45.54,45.54,0,0,0-10.12-12.15,77.42,77.42,0,0,0-15.3-9.45q-8.55-4-18-7.65l-38.7-13.5q-38.25-13.5-58.05-35.77t-19.8-55.58q0-20.25,7.88-36.45a81.43,81.43,0,0,1,22.27-27.9q14.4-11.24,34.65-17.32a154.56,154.56,0,0,1,44.55-6.08q52.65,0,81.68,20.7t29,61.2V532h-63v-14.4q0-15.74-12.6-23.17t-34.2-7.43q-19.81,0-33.3,8.1t-13.5,27.45a33.87,33.87,0,0,0,3.15,15.3,33.09,33.09,0,0,0,9.45,11.25,80.43,80.43,0,0,0,16,9.45q9.66,4.51,23.17,9.45l37.8,14a158.52,158.52,0,0,1,28.35,14.63,134.3,134.3,0,0,1,23.85,19.57,98.71,98.71,0,0,1,16,24.75,69.56,69.56,0,0,1,6.07,28.8q0,25.2-8.78,43.43A79.6,79.6,0,0,1,4675.26,743q-16.2,11.7-38.48,17.33T4587.51,766q-29.25,0-49.73-7.42t-33.52-20a77.65,77.65,0,0,1-19.57-30.15,106.74,106.74,0,0,1-6.08-36V658.44h62.55Z" transform="translate(-43.48 -26.19)" />
        <path class="cls-3" d="M5013,336.69q60.86,0,90.38,32.18t29.53,92.47q-1.35,59-30.44,92t-89.55,33.07h-67.66V757.89H4879.1V336.69ZM5010.5,532q26.55,0,42.08-16.87t15.52-53.33q0-35.1-15.52-52.87t-42.08-17.78h-65.25V532Z" transform="translate(-43.48 -26.19)" />
        <path class="cls-3" d="M5287.48,765.54q-30.19,0-53-9a90.07,90.07,0,0,1-38.1-28.35q-15.33-19.8-23-51.3t-7.66-76.95q0-45,7-76.27t21.86-51.08a85.62,85.62,0,0,1,37.87-28.8q23-9,55-9,31.56,0,54.78,9a88.42,88.42,0,0,1,38.54,28.8q14.86,19.82,22.09,51.08t7.22,76.27q0,45.46-7.67,76.95t-23,51.3a89.82,89.82,0,0,1-38.32,28.35Q5318.14,765.54,5287.48,765.54Zm-56.92-165.6q0,32,2.47,53.55t8.78,34.65q6.3,12.6,17.32,18t28.13,5.4q17.55,0,28.8-5.4t18-18q6.3-13,8.77-34.65t2.48-53.55q0-31.49-2.48-52.65t-8.77-34.2q-6.75-13-18-18.67t-28.8-5.63q-17.11,0-28.13,5.63t-17.32,18.67q-6.31,13.06-8.78,34.2T5230.56,599.94Z" transform="translate(-43.48 -26.19)" />
        <path class="cls-3" d="M5528,336.69v421.2h-64.8V336.69Z" transform="translate(-43.48 -26.19)" />
        <path class="cls-3" d="M5656.7,336.69v421.2h-64.8V336.69Z" transform="translate(-43.48 -26.19)" />
    </g>
</svg>