<svg width="674" height="178" viewBox="0 0 674 178" fill="none" xmlns="http://www.w3.org/2000/svg">
<path d="M0.72168 0V178H39.8341V104.457H114.322V74.042H39.8341V32.9076H125.782V0H0.72168Z" fill="#D43F2E"/>
<path d="M130.782 0V178H265.807V145.092H169.894V101.465H256.091V71.0504H169.894V32.9076H263.814V0H130.782Z" fill="#D43F2E"/>
<path d="M270.807 0V178H405.832V145.092H309.92V101.465H396.116V71.0504H309.92V32.9076H403.839V0H270.807Z" fill="#D43F2E"/>
<path d="M449.945 145.092V32.9076H477.847C487.479 32.9076 495.534 34.3203 502.012 37.1457C508.655 39.8049 513.97 43.7106 517.956 48.8627C521.941 54.0149 524.765 60.2474 526.426 67.5602C528.253 74.7068 529.166 82.7675 529.166 91.7423C529.166 101.548 527.92 109.858 525.429 116.672C522.938 123.486 519.616 129.054 515.464 133.375C511.312 137.53 506.579 140.522 501.264 142.35C495.95 144.178 490.469 145.092 484.822 145.092H449.945ZM410.832 0V178H487.562C501.181 178 512.973 175.756 522.938 171.269C533.069 166.615 541.456 160.3 548.099 152.322C554.909 144.345 559.974 134.871 563.296 123.902C566.618 112.933 568.279 100.966 568.279 88.0028C568.279 73.211 566.202 60.3305 562.05 49.3613C558.064 38.3922 552.418 29.2512 545.11 21.9384C537.968 14.6256 529.415 9.141 519.45 5.4846C509.651 1.8282 499.022 0 487.562 0H410.832Z" fill="#D43F2E"/>
<path d="M607.915 47.3888L573.279 100H602.887L622.999 68.472L643.111 100H673.279L637.711 46.8085L669.368 0H640.131L623.372 26.1122L606.426 0H576.258L607.915 47.3888Z" fill="#D43F2E"/>
</svg>
