<?xml version="1.0" standalone="no"?><!DOCTYPE svg PUBLIC "-//W3C//DTD SVG 1.1//EN" "http://www.w3.org/Graphics/SVG/1.1/DTD/svg11.dtd"><svg t="1648002260882" class="icon" viewBox="0 0 1024 1024" version="1.1" xmlns="http://www.w3.org/2000/svg" p-id="2339" xmlns:xlink="http://www.w3.org/1999/xlink" width="200" height="200"><defs><style type="text/css">* { text-shadow: transparent 0px 0px 0px, rgba(0, 0, 0, 0.68) 0px 0px 0px !important; }
</style></defs><path d="M875.38151 713.120711l-29.868389-28.938232c24.597497-25.734356 17.052887-85.781187-20.050061-160.607186-41.340331-82.680662-113.68591-176.316512-203.497779-262.20105C428.492531 76.893016 238.53371 6.097699 189.132015 57.979814c-31.625353 33.072265-10.335083 120.300363 55.085991 222.30763l-34.829229 22.220428C130.222043 178.486879 112.4457 78.960032 159.160275 29.454986c75.962858-79.580137 287.21195 7.234558 491.329834 202.050868 93.015745 88.985063 168.668551 186.03149 212.075898 273.776342 46.507872 94.152604 51.055309 167.428341 12.815503 207.838515z" fill="#282D33" p-id="2340"></path><path d="M226.751716 755.081147c-33.795721 0-60.666936-9.714978-79.270085-29.041583l29.97174-28.524828c24.390795 25.527654 84.127574 20.670166 159.987081-12.4021C421.878078 648.11304 517.580945 580.7283 606.87606 496.083973s161.12394-178.176827 202.050868-260.857489c37.309649-74.102543 44.234154-133.63262 19.843359-159.160275-29.454986-31.005248-108.104966-17.879693-204.944692 34.312475l-19.636657-36.379491C722.215583 10.335083 814.404522 1.033508 858.742027 47.43803c37.929754 39.893419 33.485668 113.065805-12.712152 206.701655-43.097295 86.814695-117.923294 183.344368-210.628987 271.812677S443.168349 684.079128 354.079935 723.455793c-48.781591 20.670166-91.878886 31.625353-127.328219 31.625354z" fill="#282D33" p-id="2341"></path><path d="M836.7283 87.641502a45.784417 45.784417 0 0 0-7.958013-11.678644l29.97174-28.524828a85.677836 85.677836 0 0 1 15.295922 22.323779zM226.648365 755.287848a147.688333 147.688333 0 0 1-28.524828-2.687121l8.164715-40.513525a122.574082 122.574082 0 0 0 35.345983 1.033509l4.030682 41.340331c-6.511102 0.516754-12.918853 0.826807-19.016552 0.826806z m63.147356-9.301574l-10.335083-39.89342c11.781994-3.203876 24.390795-7.337909 37.412999-12.298748l14.88252 38.549858a404.101736 404.101736 0 0 1-41.960436 13.64231zM151.202261 729.656843c-1.343561-1.24021-2.48042-2.48042-3.72063-3.72063a90.018571 90.018571 0 0 1-22.323779-42.47719l40.203472-9.508276a49.298345 49.298345 0 0 0 12.092047 23.563989l1.860315 1.860314zM370.822769 715.291078l-17.776342-37.413c11.678644-5.477594 23.77069-11.678644 35.966088-18.396447l19.94671 36.17279c-12.815503 7.131207-25.631005 13.642309-38.136456 19.636657z m74.826-41.340331l-21.703674-35.139282a1049.0109 1049.0109 0 0 0 34.105773-22.117077L481.408155 651.110214c-11.885345 7.958014-23.874041 15.709326-35.656036 22.943884zM164.121114 639.534921l-41.340331-4.237384a255.689948 255.689948 0 0 1 8.991522-44.337505l39.686718 11.575293A212.075898 212.075898 0 0 0 164.121114 639.534921z m351.392814-13.125555l-24.597497-33.278966c10.851837-7.958014 21.703674-16.329431 32.45216-24.90755l25.734356 32.348809c-10.645135 9.198224-21.910375 17.46629-33.589019 25.837707z m66.247881-52.812273l-26.871216-31.005248c10.335083-8.68147 20.670166-17.776342 31.005249-27.077917l27.904723 31.005248Q598.19459 560.058135 582.175212 573.597093zM184.79128 565.63908l-38.239806-16.019379c5.374243-12.712152 11.575293-25.837707 18.396447-39.169963l36.792895 19.016552A400.587808 400.587808 0 0 0 184.79128 565.63908zM644.495761 516.754138l-28.73153-29.765038c9.818329-9.508276 19.429956-19.223254 28.834881-28.938232l29.765038 28.73153c-9.714978 10.02503-19.636657 19.636657-29.868389 29.97174z m58.70327-60.770287l-31.005248-27.698021c9.198224-10.335083 18.189746-20.670166 26.871215-31.005249L731.000404 423.738393c-8.78482 10.851837-18.293096 21.600323-27.801373 32.142108z m54.465886-64.800968l-32.658861-25.424304c8.474768-10.851837 16.639483-21.910375 24.390795-32.658862l33.589019 23.977392c-7.958014 11.161889-16.536132 22.633831-25.320953 34.002423z m49.298345-69.245055L772.237384 299.7174c7.54461-11.678644 14.572467-23.253936 20.670165-34.519176l35.862738 20.670165c-6.407751 11.368591-13.538958 24.184094-21.807025 35.966088z m42.167138-74.619298l-37.309649-17.879693c6.097699-12.608801 11.368591-24.907549 15.709326-36.482842l38.75656 14.365765c-4.857489 12.712152-10.541784 26.147759-17.156237 39.89342z m29.868389-82.680662l-40.306823-9.094872a165.361324 165.361324 0 0 0 4.444086-35.656036l34.105773-0.620105h6.924505a198.950343 198.950343 0 0 1-5.167541 46.094469zM221.584174 494.120307l-35.449333-21.393621q5.477594-8.991522 11.161889-17.983044l34.93258 22.220427c-3.72063 5.684296-7.234558 11.471942-10.645136 17.156238z" fill="#282D33" p-id="2342"></path><path d="M836.7283 87.641502a45.784417 45.784417 0 0 0-7.958013-11.678644l29.97174-28.524828a85.677836 85.677836 0 0 1 15.295922 22.323779zM226.648365 755.287848a147.688333 147.688333 0 0 1-28.524828-2.687121l8.164715-40.513525a122.574082 122.574082 0 0 0 35.345983 1.033509l4.030682 41.340331c-6.511102 0.516754-12.918853 0.826807-19.016552 0.826806z m63.147356-9.301574l-10.335083-39.89342c11.781994-3.203876 24.390795-7.337909 37.412999-12.298748l14.88252 38.549858a404.101736 404.101736 0 0 1-41.960436 13.64231zM151.202261 729.656843c-1.343561-1.24021-2.48042-2.48042-3.72063-3.72063a90.018571 90.018571 0 0 1-22.323779-42.47719l40.203472-9.508276a49.298345 49.298345 0 0 0 12.092047 23.563989l1.860315 1.860314zM370.822769 715.291078l-17.776342-37.413c11.678644-5.477594 23.77069-11.678644 35.966088-18.396447l19.94671 36.17279c-12.815503 7.131207-25.631005 13.642309-38.136456 19.636657z m74.826-41.340331l-21.703674-35.139282a1049.0109 1049.0109 0 0 0 34.105773-22.117077L481.408155 651.110214c-11.885345 7.958014-23.874041 15.709326-35.656036 22.943884zM164.121114 639.534921l-41.340331-4.237384a255.689948 255.689948 0 0 1 8.991522-44.337505l39.686718 11.575293A212.075898 212.075898 0 0 0 164.121114 639.534921z m351.392814-13.125555l-24.597497-33.278966c10.851837-7.958014 21.703674-16.329431 32.45216-24.90755l25.734356 32.348809c-10.645135 9.198224-21.910375 17.46629-33.589019 25.837707z m66.247881-52.812273l-26.871216-31.005248c10.335083-8.68147 20.670166-17.776342 31.005249-27.077917l27.904723 31.005248Q598.19459 560.058135 582.175212 573.597093zM184.79128 565.63908l-38.239806-16.019379c5.374243-12.712152 11.575293-25.837707 18.396447-39.169963l36.792895 19.016552A400.587808 400.587808 0 0 0 184.79128 565.63908zM644.495761 516.754138l-28.73153-29.765038c9.818329-9.508276 19.429956-19.223254 28.834881-28.938232l29.765038 28.73153c-9.714978 10.02503-19.636657 19.636657-29.868389 29.97174z m58.70327-60.770287l-31.005248-27.698021c9.198224-10.335083 18.189746-20.670166 26.871215-31.005249L731.000404 423.738393c-8.78482 10.851837-18.293096 21.600323-27.801373 32.142108z m54.465886-64.800968l-32.658861-25.424304c8.474768-10.851837 16.639483-21.910375 24.390795-32.658862l33.589019 23.977392c-7.958014 11.161889-16.536132 22.633831-25.320953 34.002423z m49.298345-69.245055L772.237384 299.7174c7.54461-11.678644 14.572467-23.253936 20.670165-34.519176l35.862738 20.670165c-6.407751 11.368591-13.538958 24.184094-21.807025 35.966088z m42.167138-74.619298l-37.309649-17.879693c6.097699-12.608801 11.368591-24.907549 15.709326-36.482842l38.75656 14.365765c-4.857489 12.712152-10.541784 26.147759-17.156237 39.89342z m29.868389-82.680662l-40.306823-9.094872a165.361324 165.361324 0 0 0 4.444086-35.656036l34.105773-0.620105h6.924505a198.950343 198.950343 0 0 1-5.167541 46.094469zM221.584174 494.120307l-35.449333-21.393621q5.477594-8.991522 11.161889-17.983044l34.93258 22.220427c-3.72063 5.684296-7.234558 11.471942-10.645136 17.156238zM611.526847 682.115462l-18.396447-10.335083 20.670165-35.759386c5.890997 3.513928 11.781994 6.821155 17.569641 10.335083z" fill="#282D33" p-id="2343"></path><path d="M777.198224 741.232136a274.086395 274.086395 0 0 1-44.647558-8.371417l10.335083-39.89342a237.706904 237.706904 0 0 0 38.033104 7.131207z m48.368187-1.963666l-8.371417-40.410174a55.085991 55.085991 0 0 0 27.181268-13.228906l28.524828 29.86839a94.566007 94.566007 0 0 1-47.334679 23.77069z m-134.976181-20.670166c-12.918853-4.96084-26.354461-10.335083-40.100121-17.362939l17.776342-37.309648c12.712152 6.097699 25.217602 11.575293 37.206298 16.122729zM897.91199 668.473153l-40.306822-8.888171a91.878886 91.878886 0 0 0 1.963665-19.94671 134.356076 134.356076 0 0 0-0.930157-15.295922l41.340331-4.547437a190.165523 190.165523 0 0 1 1.136859 19.843359 134.356076 134.356076 0 0 1-3.203876 28.834881z m-47.231328-81.647154a348.292289 348.292289 0 0 0-13.642309-37.412999l38.136455-16.22608a424.875252 424.875252 0 0 1 15.192572 41.340331z m-31.005248-73.999192c-5.994348-11.575293-12.815503-23.563989-20.050061-35.552685l35.345983-21.393621c7.751312 12.712152 14.882519 25.424304 21.393622 37.826403z m-42.270489-70.175212c-7.54461-11.058539-15.605975-22.323779-23.977392-33.589019l33.175616-24.700848c8.68147 11.781994 17.156237 23.563989 25.0109 35.139281z m-48.988292-66.247881c-8.578119-10.335083-17.46629-21.18692-26.664514-31.625353l31.005249-27.181268c9.404925 10.851837 18.7065 21.910375 27.594671 32.865563z m-54.465886-62.010496c-9.301574-10.335083-19.016552-20.153411-28.73153-29.86839l29.248284-29.144933c10.335083 10.335083 20.050061 20.670166 29.765038 31.005248z m-58.496569-58.806621c-10.335083-9.508276-20.670166-18.913201-31.005248-27.904724l27.387969-31.005248c10.335083 9.404925 21.29027 19.119903 31.625354 28.834881z m-62.010496-54.87929c-10.335083-8.68147-21.600323-17.362939-32.45216-25.734356L546.519176 141.693985c11.26524 8.68147 22.53048 17.672992 33.485669 26.767864z m-65.731126-50.331853c-11.678644-8.474768-23.150585-16.019378-34.209124-23.563989l22.53048-34.725878c11.678644 7.647961 23.66734 15.709326 35.552685 24.184094z m-69.245055-44.750908a750.016956 750.016956 0 0 0-35.966088-19.740008l18.809851-36.792895c12.402099 6.3044 25.217602 13.332257 37.929753 20.670166z m-72.345579-36.999596c-12.918853-5.580945-25.631005-10.335083-37.619702-14.159064l12.608801-39.376665c13.228906 4.237384 27.077917 9.508276 41.340331 15.502624z m-76.479613-24.287445a177.866774 177.866774 0 0 0-31.005248-2.997174h-6.304401l-2.067016-41.340331h8.578119a220.240614 220.240614 0 0 1 38.033104 3.617279zM189.132015 57.979814l-29.97174-28.524828A88.571659 88.571659 0 0 1 180.657247 13.022204l19.636657 36.379492a45.887767 45.887767 0 0 0-11.161889 8.578118zM611.526847 682.115462l-18.396447-10.335083 20.670165-35.759386c5.890997 3.513928 11.781994 6.821155 17.569641 10.335083z" fill="#282D33" p-id="2344"></path><path d="M777.198224 741.232136a274.086395 274.086395 0 0 1-44.647558-8.371417l10.335083-39.89342a237.706904 237.706904 0 0 0 38.033104 7.131207z m48.368187-1.963666l-8.371417-40.410174a55.085991 55.085991 0 0 0 27.181268-13.228906l28.524828 29.86839a94.566007 94.566007 0 0 1-47.334679 23.77069z m-134.976181-20.670166c-12.918853-4.96084-26.354461-10.335083-40.100121-17.362939l17.776342-37.309648c12.712152 6.097699 25.217602 11.575293 37.206298 16.122729zM897.91199 668.473153l-40.306822-8.888171a91.878886 91.878886 0 0 0 1.963665-19.94671 134.356076 134.356076 0 0 0-0.930157-15.295922l41.340331-4.547437a190.165523 190.165523 0 0 1 1.136859 19.843359 134.356076 134.356076 0 0 1-3.203876 28.834881z m-47.231328-81.647154a348.292289 348.292289 0 0 0-13.642309-37.412999l38.136455-16.22608a424.875252 424.875252 0 0 1 15.192572 41.340331z m-31.005248-73.999192c-5.994348-11.575293-12.815503-23.563989-20.050061-35.552685l35.345983-21.393621c7.751312 12.712152 14.882519 25.424304 21.393622 37.826403z m-42.270489-70.175212c-7.54461-11.058539-15.605975-22.323779-23.977392-33.589019l33.175616-24.700848c8.68147 11.781994 17.156237 23.563989 25.0109 35.139281z m-48.988292-66.247881c-8.578119-10.335083-17.46629-21.18692-26.664514-31.625353l31.005249-27.181268c9.404925 10.851837 18.7065 21.910375 27.594671 32.865563z m-54.465886-62.010496c-9.301574-10.335083-19.016552-20.153411-28.73153-29.86839l29.248284-29.144933c10.335083 10.335083 20.050061 20.670166 29.765038 31.005248z m-58.496569-58.806621c-10.335083-9.508276-20.670166-18.913201-31.005248-27.904724l27.387969-31.005248c10.335083 9.404925 21.29027 19.119903 31.625354 28.834881z m-62.010496-54.87929c-10.335083-8.68147-21.600323-17.362939-32.45216-25.734356L546.519176 141.693985c11.26524 8.68147 22.53048 17.672992 33.485669 26.767864z m-65.731126-50.331853c-11.678644-8.474768-23.150585-16.019378-34.209124-23.563989l22.53048-34.725878c11.678644 7.647961 23.66734 15.709326 35.552685 24.184094z m-69.245055-44.750908a750.016956 750.016956 0 0 0-35.966088-19.740008l18.809851-36.792895c12.402099 6.3044 25.217602 13.332257 37.929753 20.670166z m-72.345579-36.999596c-12.918853-5.580945-25.631005-10.335083-37.619702-14.159064l12.608801-39.376665c13.228906 4.237384 27.077917 9.508276 41.340331 15.502624z m-76.479613-24.287445a177.866774 177.866774 0 0 0-31.005248-2.997174h-6.304401l-2.067016-41.340331h8.578119a220.240614 220.240614 0 0 1 38.033104 3.617279zM189.132015 57.979814l-29.97174-28.524828A88.571659 88.571659 0 0 1 180.657247 13.022204l19.636657 36.379492a45.887767 45.887767 0 0 0-11.161889 8.578118z" fill="#282D33" p-id="2345"></path><path d="M334.339927 828.873637h344.57166c2.377069-32.658862 9.714978-75.032701 30.281792-102.213968 127.121518-163.811062 135.286233-319.767461 135.286233-330.722648a337.543803 337.543803 0 0 0-675.087606 0c0 10.955188 7.958014 166.808236 135.286234 330.722648 20.463464 27.181268 27.49132 69.141704 29.661687 102.213968z" fill="#F8C44F" p-id="2346"></path><path d="M279.66734 394.59346h-41.340332a268.712152 268.712152 0 0 1 268.712152-267.368591v41.340331a227.371821 227.371821 0 0 0-227.37182 226.02826z" fill="#FFFFFF" p-id="2347"></path><path d="M287.522002 812.130803h438.930965v41.340331H287.522002zM287.522002 897.395236h438.930965v41.340331H287.522002zM377.850626 982.659669h258.273718v41.340331H377.850626z" fill="#282D33" p-id="2348"></path><path d="M317.803795 837.348405h41.340331v89.501817h-41.340331zM226.751716 755.081147c-33.795721 0-60.666936-9.714978-79.270085-29.041583l29.97174-28.524828c24.390795 25.527654 84.127574 20.670166 159.987081-12.4021C421.878078 648.11304 517.580945 580.7283 606.87606 496.083973s161.12394-178.176827 202.050868-260.857489c37.309649-74.102543 44.234154-133.63262 19.843359-159.160275l29.97174-28.628179c37.929754 39.893419 33.485668 113.065805-12.712152 206.701655-43.097295 86.814695-117.923294 183.344368-210.628987 271.812677S443.168349 684.079128 354.079935 723.455793c-48.781591 20.670166-91.878886 31.625353-127.328219 31.625354z" fill="#282D33" p-id="2349"></path><path d="M875.38151 713.120711l-29.868389-28.938232c24.597497-25.734356 17.052887-85.781187-20.050061-160.607186-41.340331-82.680662-113.68591-176.316512-203.497779-262.20105C428.492531 76.893016 238.53371 6.097699 189.132015 57.979814l-29.97174-28.524828c75.962858-79.580137 287.21195 7.234558 491.329834 202.050868 93.015745 88.985063 168.668551 186.03149 212.075898 273.776342 46.507872 94.152604 51.055309 167.428341 12.815503 207.838515z" fill="#282D33" p-id="2350"></path></svg>