<?xml version="1.0" standalone="no"?><!DOCTYPE svg PUBLIC "-//W3C//DTD SVG 1.1//EN" "http://www.w3.org/Graphics/SVG/1.1/DTD/svg11.dtd"><svg t="1648124912548" class="icon" viewBox="0 0 1024 1024" version="1.1" xmlns="http://www.w3.org/2000/svg" p-id="2925" xmlns:xlink="http://www.w3.org/1999/xlink" width="200" height="200"><defs><style type="text/css">* { text-shadow: transparent 0px 0px 0px, rgba(0, 0, 0, 0.68) 0px 0px 0px !important; }
</style></defs><path d="M996.55168 374.56l-315.136-44.928-140.8-280c-10.88-21.632-46.336-21.632-57.216 0l-140.8 280-315.136 44.928a31.968 31.968 0 0 0-17.6 54.784l227.68 217.792-53.728 307.36a31.968 31.968 0 0 0 12.608 31.296 31.84 31.84 0 0 0 33.6 2.656L512.00768 842.944l281.984 145.504a32 32 0 0 0 46.208-33.952l-53.728-307.36 227.648-217.792a32 32 0 0 0-17.6-54.784z m-266.656 238.144a32 32 0 0 0-9.408 28.64l45.536 260.64-239.328-123.488a32.128 32.128 0 0 0-29.376 0l-239.36 123.52 45.568-260.672a32 32 0 0 0-9.408-28.64l-192.416-184.064 266.496-38.016a32 32 0 0 0 24.064-17.312L512.00768 135.232l119.744 238.08a32 32 0 0 0 24.064 17.28l266.496 38.048-192.416 184.064z" fill="#5465CF" p-id="2926"></path></svg>