<?xml version="1.0" encoding="iso-8859-1"?>
<!-- Generator: Adobe Illustrator 19.0.0, SVG Export Plug-In . SVG Version: 6.00 Build 0)  -->
<svg xmlns="http://www.w3.org/2000/svg" xmlns:xlink="http://www.w3.org/1999/xlink" version="1.1" id="Capa_1" x="0px" y="0px" viewBox="0 0 512.001 512.001" style="enable-background:new 0 0 512.001 512.001;" xml:space="preserve" width="512px" height="512px">
<g>
	<g>
		<path d="M406.296,90.17h-30.059c-8.307,0-15.03,6.722-15.03,15.03c0,8.307,6.722,15.03,15.03,15.03h30.059    c8.307,0,15.03-6.722,15.03-15.03C421.325,96.892,414.603,90.17,406.296,90.17z" fill="#7c7a7a"/>
	</g>
</g>
<g>
	<g>
		<path d="M254.416,38.359L239.387,8.3c-3.742-7.427-12.74-10.406-20.167-6.722c-7.427,3.713-10.436,12.74-6.722,20.167    l15.03,30.059c3.708,7.397,12.69,10.436,20.167,6.722C255.12,54.813,258.129,45.786,254.416,38.359z" fill="#7c7a7a"/>
	</g>
</g>
<g>
	<g>
		<path d="M352.9,1.578c-7.398-3.684-16.453-0.704-20.167,6.722l-15.03,30.059c-3.713,7.427-0.704,16.453,6.722,20.167    c7.499,3.724,16.47,0.65,20.167-6.722l15.03-30.059C363.335,14.318,360.326,5.291,352.9,1.578z" fill="#7c7a7a"/>
	</g>
</g>
<g>
	<g>
		<path d="M195.882,90.17h-30.059c-8.307,0-15.03,6.722-15.03,15.03c0,8.307,6.722,15.03,15.03,15.03h30.059    c8.307,0,15.03-6.722,15.03-15.03C210.912,96.892,204.189,90.17,195.882,90.17z" fill="#7c7a7a"/>
	</g>
</g>
<g>
	<g>
		<path d="M105.705,241.468H45.586c-8.3,0-15.03,6.729-15.03,15.03V496.97c0,8.3,6.729,15.03,15.03,15.03h60.118    c8.3,0,15.03-6.729,15.03-15.03V256.497C120.734,248.197,114.006,241.468,105.705,241.468z" fill="#7c7a7a"/>
	</g>
</g>
<g>
	<g>
		<path d="M481.145,281.308c-2.651-23.315-24.43-39.84-47.895-39.84H316.075c9.958-17.831,15.303-68.264,15.066-88.866    c-0.393-34.102-28.634-61.43-62.737-61.43h-12.402c-8.307,0-15.03,6.722-15.03,15.03c0,34.755-13.533,97.487-39.056,123.011    c-17.179,17.179-31.865,23.404-51.122,33.028v225.518c29.483,9.827,66.917,24.242,123.974,24.242h98.316    c32.395,0,57.625-30.003,45.072-61.703c19.125-5.21,33.229-22.75,33.229-43.504c0-5.857-1.13-11.463-3.17-16.615    c32.229-8.781,44.092-48.576,21.723-73.563C478.156,307.435,482.688,294.877,481.145,281.308z" fill="#7c7a7a"/>
	</g>
</g>
<g>
</g>
<g>
</g>
<g>
</g>
<g>
</g>
<g>
</g>
<g>
</g>
<g>
</g>
<g>
</g>
<g>
</g>
<g>
</g>
<g>
</g>
<g>
</g>
<g>
</g>
<g>
</g>
<g>
</g>
</svg>
