<svg width="66" height="65" viewBox="0 0 66 65" fill="none" xmlns="http://www.w3.org/2000/svg">
<g clip-path="url(#clip0)">
<path fill-rule="evenodd" clip-rule="evenodd" d="M32.9979 0C14.7757 0 0 14.8322 0 33.1329C0 47.7684 9.45449 60.1863 22.5699 64.5679C24.2199 64.8722 24.8222 63.8493 24.8222 62.9713C24.8222 62.1844 24.7933 60.1014 24.7768 57.337C15.5966 59.3394 13.66 52.8955 13.66 52.8955C12.1605 49.0689 9.99695 48.0501 9.99695 48.0501C7.00014 45.9939 10.2238 46.0352 10.2238 46.0352C13.5341 46.2692 15.2769 49.4498 15.2769 49.4498C18.2222 54.5126 23.001 53.0507 24.882 52.2018C25.1811 50.0607 26.0349 48.6009 26.9775 47.7726C19.6494 46.9361 11.946 44.0951 11.946 31.3998C11.946 27.7823 13.2309 24.8253 15.3429 22.5082C15.0026 21.6696 13.8703 18.3027 15.6647 13.741C15.6647 13.741 18.4367 12.8506 24.7397 17.1369C27.3735 16.4018 30.195 16.0353 33.0021 16.0208C35.805 16.0353 38.6286 16.4018 41.2644 17.1369C47.5633 12.8506 50.3292 13.741 50.3292 13.741C52.1297 18.3027 50.9974 21.6696 50.6571 22.5082C52.7732 24.8253 54.0499 27.7823 54.0499 31.3998C54.0499 44.1261 46.3341 46.9277 38.9833 47.7477C40.1672 48.7706 41.2232 50.7916 41.2232 53.8832C41.2232 58.3123 41.1819 61.8842 41.1819 62.9713C41.1819 63.8576 41.776 64.8888 43.4507 64.5637C56.5538 60.1738 66 47.7643 66 33.1329C66 14.8322 51.2242 0 32.9979 0Z" fill="black"/>
</g>
<defs>
<clipPath id="clip0">
<rect width="66" height="64.625" fill="white"/>
</clipPath>
</defs>
</svg>
