<svg width="26" height="26" viewBox="0 0 26 26" fill="none" xmlns="http://www.w3.org/2000/svg">
<g clip-path="url(#clip0)">
<path fill-rule="evenodd" clip-rule="evenodd" d="M12.9992 0C5.82074 0 0 5.84299 0 13.0523C0 18.8178 3.72449 23.7097 8.89118 25.4358C9.54118 25.5557 9.77843 25.1527 9.77843 24.8069C9.77843 24.4969 9.76705 23.6763 9.76055 22.5873C6.14411 23.3761 5.38119 20.8376 5.38119 20.8376C4.79051 19.3301 3.93819 18.9288 3.93819 18.9288C2.75763 18.1188 4.02755 18.1351 4.02755 18.1351C5.33162 18.2273 6.01817 19.4802 6.01817 19.4802C7.17842 21.4747 9.061 20.8988 9.802 20.5643C9.91982 19.7209 10.2562 19.1458 10.6275 18.8195C7.74069 18.4899 4.70599 17.3708 4.70599 12.3696C4.70599 10.9445 5.21219 9.77967 6.04419 8.86688C5.91013 8.53651 5.46407 7.21016 6.17095 5.41313C6.17095 5.41313 7.26293 5.06235 9.74593 6.75089C10.7835 6.46131 11.895 6.31693 13.0008 6.31122C14.105 6.31693 15.2173 6.46131 16.2557 6.75089C18.7371 5.06235 19.8266 5.41313 19.8266 5.41313C20.536 7.21016 20.0899 8.53651 19.9558 8.86688C20.7894 9.77967 21.2924 10.9445 21.2924 12.3696C21.2924 17.383 18.2528 18.4867 15.3571 18.8097C15.8234 19.2126 16.2395 20.0088 16.2395 21.2267C16.2395 22.9715 16.2232 24.3786 16.2232 24.8069C16.2232 25.156 16.4572 25.5622 17.117 25.4341C22.2788 23.7048 26 18.8162 26 13.0523C26 5.84299 20.1792 0 12.9992 0Z" fill="white"/>
</g>
<defs>
<clipPath id="clip0">
<rect width="26" height="25.4583" fill="white"/>
</clipPath>
</defs>
</svg>
