<svg width="332" height="64" viewBox="0 0 332 64" xmlns="http://www.w3.org/2000/svg">
  <path d="M30.25 15.25l-4.875 17.875h4.875V47.75l11.375-19.5h-6.5l6.5-13z"/>
  <path d="M2.344 46.576c.48-1.856 1.456-3.264 2.928-4.224-.16-.64-.24-1.528-.24-2.664 0-1.136.336-4.184 1.008-9.144C7.224 22.32 7.816 15.952 7.816 11.44c0-.96-.064-2.272-.192-3.936 2.432.128 4.208.512 5.328 1.152.48.256.848.648 1.104 1.176.256.528.408 1.016.456 1.464.048.448.072 1.264.072 2.448s-.488 5.064-1.464 11.64c-.976 6.576-1.544 11.752-1.704 15.528 7.584 0 13.2-.608 16.848-1.824-.288 2.368-1.008 4.208-2.16 5.52-1.152 1.312-2.592 1.968-4.32 1.968-.512 0-1.944-.136-4.296-.408a65.036 65.036 0 0 0-7.464-.408 35.96 35.96 0 0 0-7.68.816zm55.128-27.792c.608 0 1.072.032 1.392.096.832.16 1.28.752 1.344 1.776-3.488.736-6.264 2.624-8.328 5.664-2.064 3.04-3.096 6.208-3.096 9.504 0 3.84 1.168 5.76 3.504 5.76 1.408 0 2.672-.768 3.792-2.304 1.984-2.784 3.376-7.136 4.176-13.056.608-4.672 1.744-7.68 3.408-9.024.8-.672 1.792-1.2 2.976-1.584-.448 3.392-.672 5.952-.672 7.68 0 12.8-1.368 22.416-4.104 28.848-2.736 6.432-7.192 9.648-13.368 9.648-2.496 0-4.448-.664-5.856-1.992-1.408-1.328-2.112-2.784-2.112-4.368 0-1.584.496-2.88 1.488-3.888s2.384-1.512 4.176-1.512c.736 0 1.488.16 2.256.48-1.216.8-1.824 2.032-1.824 3.696 0 1.12.336 2.088 1.008 2.904.672.816 1.496 1.224 2.472 1.224s1.832-.2 2.568-.6c.736-.4 1.488-1.112 2.256-2.136.768-1.024 1.44-2.304 2.016-3.84 1.312-3.552 2.032-8.4 2.16-14.544-.928 2.752-2.336 4.96-4.224 6.624-1.888 1.664-3.808 2.496-5.76 2.496-2.464 0-4.344-.936-5.64-2.808-1.296-1.872-1.944-4.264-1.944-7.176 0-3.392.816-6.544 2.448-9.456 1.824-3.36 4.352-5.696 7.584-7.008 1.792-.736 3.76-1.104 5.904-1.104zM76.86 31.168c1.056-3.616 2.704-6.664 4.944-9.144 2.24-2.48 4.328-3.72 6.264-3.72s3.312.584 4.128 1.752c.816 1.168 1.224 2.752 1.224 4.752s-.312 4.808-.936 8.424c-.624 3.616-.936 6.248-.936 7.896 0 1.648.208 2.848.624 3.6.416.752 1.12 1.4 2.112 1.944-.416.032-1.008.048-1.776.048-2.688 0-4.6-.416-5.736-1.248-1.136-.832-1.704-2.288-1.704-4.368 0-1.184.32-3.496.96-6.936.64-3.44.96-6.008.96-7.704 0-2.112-.64-3.168-1.92-3.168-.768 0-1.616.432-2.544 1.296-.928.864-1.816 2.04-2.664 3.528-.848 1.488-1.56 3.4-2.136 5.736a29.081 29.081 0 0 0-.864 6.984c0 2.32.096 4.04.288 5.16-1.024.064-1.696.096-2.016.096-1.824 0-3.136-.312-3.936-.936-.8-.624-1.2-1.624-1.2-3s.272-4 .816-7.872c1.728-11.904 2.592-20.944 2.592-27.12 0-2.784-.192-4.656-.576-5.616 2.4.64 4.04 1.608 4.92 2.904.88 1.296 1.32 3.128 1.32 5.496 0 1.6-.312 4.96-.936 10.08-.624 5.12-1.048 8.832-1.272 11.136zm30.572-7.728c-.16 1.152-.496 3.152-1.008 6-1.088 6.048-1.632 10.528-1.632 13.44 0 2.912.224 4.864.672 5.856-2.464-.64-4.16-1.624-5.088-2.952-.928-1.328-1.392-3.208-1.392-5.64 0-2.144.336-5.08 1.008-8.808.672-3.728 1.104-6.248 1.296-7.56-1.664.288-3.44.848-5.328 1.68a19.163 19.163 0 0 1-.096-1.584c0-1.696.512-2.856 1.536-3.48 1.024-.624 2.496-.952 4.416-.984.224-2.4.336-4.128.336-5.184s-.008-1.936-.024-2.64a76.257 76.257 0 0 1-.024-1.584c2.112.224 3.648.856 4.608 1.896.96 1.04 1.44 2.52 1.44 4.44 0 .768-.08 1.84-.24 3.216 2.688-.064 4.656-.592 5.904-1.584.064.64.096 1.12.096 1.44 0 1.536-.272 2.6-.816 3.192-.544.592-1.456.888-2.736.888-1.28 0-2.256-.016-2.928-.048zm28.34-3.384c.816 1.168 1.224 2.752 1.224 4.752s-.312 4.808-.936 8.424c-.624 3.616-.936 6.248-.936 7.896 0 1.648.208 2.848.624 3.6.416.752 1.12 1.4 2.112 1.944-.416.032-1.008.048-1.776.048-2.688 0-4.6-.416-5.736-1.248-1.136-.832-1.704-2.288-1.704-4.368 0-1.184.32-3.496.96-6.936.64-3.44.96-6.008.96-7.704 0-2.112-.64-3.168-1.92-3.168-.736 0-1.568.432-2.496 1.296-.928.864-1.824 2.04-2.688 3.528-.864 1.488-1.584 3.4-2.16 5.736a29.081 29.081 0 0 0-.864 6.984c0 2.32.096 4.04.288 5.16-1.024.064-1.696.096-2.016.096-1.824 0-3.136-.32-3.936-.96-.8-.64-1.2-1.696-1.2-3.168 0-.64.336-3.104 1.008-7.392.672-4.288 1.008-7.704 1.008-10.248 0-2.544-.272-4.888-.816-7.032 2.336.736 3.968 1.784 4.896 3.144.928 1.36 1.392 2.912 1.392 4.656 0 1.744-.192 3.768-.576 6.072 1.056-3.584 2.72-6.624 4.992-9.12 2.272-2.496 4.352-3.744 6.24-3.744s3.24.584 4.056 1.752zm13.148 9.648c-.784 4.56-1.184 8.32-1.2 11.28-.016 2.96.168 4.872.552 5.736-2.496-.64-4.176-1.608-5.04-2.904-.864-1.296-1.296-3.192-1.296-5.688 0-1.344.256-3.776.768-7.296.512-3.52.768-6.256.768-8.208s-.096-3.456-.288-4.512c.704-.064 1.36-.096 1.968-.096 1.856 0 3.144.312 3.864.936.72.624 1.08 1.688 1.08 3.192 0 .48-.392 3-1.176 7.56zm1.896-15.912c-.896.128-1.68.192-2.352.192-3.296 0-4.944-1.152-4.944-3.456 0-.832.24-1.968.72-3.408.896-.128 1.68-.192 2.352-.192 3.296 0 4.944 1.152 4.944 3.456 0 .832-.24 1.968-.72 3.408zm25.412 6.264c.816 1.168 1.224 2.752 1.224 4.752s-.312 4.808-.936 8.424c-.624 3.616-.936 6.248-.936 7.896 0 1.648.208 2.848.624 3.6.416.752 1.12 1.4 2.112 1.944-.416.032-1.008.048-1.776.048-2.688 0-4.6-.416-5.736-1.248-1.136-.832-1.704-2.288-1.704-4.368 0-1.184.32-3.496.96-6.936.64-3.44.96-6.008.96-7.704 0-2.112-.64-3.168-1.92-3.168-.736 0-1.568.432-2.496 1.296-.928.864-1.824 2.04-2.688 3.528-.864 1.488-1.584 3.4-2.16 5.736a29.081 29.081 0 0 0-.864 6.984c0 2.32.096 4.04.288 5.16-1.024.064-1.696.096-2.016.096-1.824 0-3.136-.32-3.936-.96-.8-.64-1.2-1.696-1.2-3.168 0-.64.336-3.104 1.008-7.392.672-4.288 1.008-7.704 1.008-10.248 0-2.544-.272-4.888-.816-7.032 2.336.736 3.968 1.784 4.896 3.144.928 1.36 1.392 2.912 1.392 4.656 0 1.744-.192 3.768-.576 6.072 1.056-3.584 2.72-6.624 4.992-9.12 2.272-2.496 4.352-3.744 6.24-3.744s3.24.584 4.056 1.752zm19.796-1.272c.608 0 1.072.032 1.392.096.832.16 1.28.752 1.344 1.776-3.488.736-6.264 2.624-8.328 5.664-2.064 3.04-3.096 6.208-3.096 9.504 0 3.84 1.168 5.76 3.504 5.76 1.408 0 2.672-.768 3.792-2.304 1.984-2.784 3.376-7.136 4.176-13.056.608-4.672 1.744-7.68 3.408-9.024.8-.672 1.792-1.2 2.976-1.584-.448 3.392-.672 5.952-.672 7.68 0 12.8-1.368 22.416-4.104 28.848-2.736 6.432-7.192 9.648-13.368 9.648-2.496 0-4.448-.664-5.856-1.992-1.408-1.328-2.112-2.784-2.112-4.368 0-1.584.496-2.88 1.488-3.888s2.384-1.512 4.176-1.512c.736 0 1.488.16 2.256.48-1.216.8-1.824 2.032-1.824 3.696 0 1.12.336 2.088 1.008 2.904.672.816 1.496 1.224 2.472 1.224s1.832-.2 2.568-.6c.736-.4 1.488-1.112 2.256-2.136.768-1.024 1.44-2.304 2.016-3.84 1.312-3.552 2.032-8.4 2.16-14.544-.928 2.752-2.336 4.96-4.224 6.624-1.888 1.664-3.808 2.496-5.76 2.496-2.464 0-4.344-.936-5.64-2.808-1.296-1.872-1.944-4.264-1.944-7.176 0-3.392.816-6.544 2.448-9.456 1.824-3.36 4.352-5.696 7.584-7.008 1.792-.736 3.76-1.104 5.904-1.104zm23.704-7.392c.064-1.248.192-2.208.384-2.88 3.456.576 7.6.864 12.432.864 4.832 0 9.888-.576 15.168-1.728-.544 4.064-2.608 6.288-6.192 6.672-1.12.16-2.848.32-5.184.48-.064.928-.592 4.984-1.584 12.168-.992 7.184-1.488 12.136-1.488 14.856 0 2.72.224 4.608.672 5.664-2.72-.704-4.576-1.64-5.568-2.808s-1.488-2.616-1.488-4.344c0-1.728.408-5.48 1.224-11.256.816-5.776 1.304-10.424 1.464-13.944-2.592.128-5.136.192-7.632.192-1.472 0-2.208-1.312-2.208-3.936zm31.532 25.536c0 1.504.28 2.728.84 3.672.56.944 1.352 1.416 2.376 1.416 1.504 0 2.936-.88 4.296-2.64 1.36-1.76 2.448-4.016 3.264-6.768.816-2.752 1.224-5.368 1.224-7.848 0-2.48-.096-4.488-.288-6.024a35.46 35.46 0 0 1 2.016-.096c1.632 0 2.864.304 3.696.912.832.608 1.248 1.696 1.248 3.264 0 .608-.384 3.08-1.152 7.416-.768 4.336-1.152 7.808-1.152 10.416 0 2.608.496 4.92 1.488 6.936-2.4-.416-4.16-1.304-5.28-2.664s-1.68-3.32-1.68-5.88c0-.448.064-1.312.192-2.592-.864 3.04-2.4 5.488-4.608 7.344-2.208 1.856-4.376 2.784-6.504 2.784-2.128 0-3.84-.792-5.136-2.376-1.296-1.584-1.944-3.832-1.944-6.744s.52-5.736 1.56-8.472c1.04-2.736 2.6-5.056 4.68-6.96 2.08-1.904 4.4-2.856 6.96-2.856 1.472 0 2.976.352 4.512 1.056-3.232 1.152-5.808 3.416-7.728 6.792s-2.88 6.68-2.88 9.912zm22.412 6.024c-.096-.592-.144-1.512-.144-2.76 0-1.248.536-6.16 1.608-14.736s1.608-14.464 1.608-17.664c0-3.2-.192-5.28-.576-6.24 2.4.64 4.04 1.608 4.92 2.904.88 1.296 1.32 3.128 1.32 5.496 0 1.408-.464 5.984-1.392 13.728-.928 7.744-1.392 13.984-1.392 18.72 0 1.024.064 2.464.192 4.32-2.912-.128-4.72-.768-5.424-1.92-.384-.64-.624-1.256-.72-1.848zm18.236-11.784c1.152-6.56 3.504-10.672 7.056-12.336.896-.416 1.776-.624 2.64-.624 1.696 0 3.136.624 4.32 1.872 1.184 1.248 1.776 2.848 1.776 4.8s-.552 3.624-1.656 5.016c-1.104 1.392-2.648 2.472-4.632 3.24l.576 1.776c1.056 3.296 2.592 6.56 4.608 9.792 2.016 3.232 3.648 5.44 4.896 6.624-1.152.288-2.176.432-3.072.432-3.232 0-6.064-2.352-8.496-7.056-.96-1.856-2.368-5.328-4.224-10.416a25.72 25.72 0 0 1-1.824.048c-.192-.16-.288-.672-.288-1.536 1.472-.032 2.784-.288 3.936-.768 1.152-.48 2.048-1.104 2.688-1.872 1.216-1.568 1.824-3.216 1.824-4.944 0-.864-.184-1.576-.552-2.136-.368-.56-.888-.84-1.56-.84-1.184 0-2.392.848-3.624 2.544-1.232 1.696-2.272 4.056-3.12 7.08-.848 3.024-1.272 5.856-1.272 8.496 0 2.64.096 4.52.288 5.64-1.024.064-1.696.096-2.016.096-1.824 0-3.136-.312-3.936-.936-.8-.624-1.2-1.624-1.2-3s.288-4 .864-7.872c1.696-11.904 2.544-20.944 2.544-27.12 0-2.784-.192-4.656-.576-5.616 2.4.64 4.04 1.608 4.92 2.904.88 1.296 1.32 3.128 1.32 5.496 0 1.6-.312 4.96-.936 10.08-.624 5.12-1.048 8.832-1.272 11.136zm26.54-9.144c-.704.592-1.056 1.432-1.056 2.52s.376 2.112 1.128 3.072c.752.96 1.672 1.8 2.76 2.52 1.088.72 2.184 1.456 3.288 2.208a12.278 12.278 0 0 1 2.904 2.784c.832 1.104 1.296 2.328 1.392 3.672 0 2.304-.992 4.24-2.976 5.808-1.984 1.568-4.448 2.352-7.392 2.352s-5.256-.592-6.936-1.776c-1.68-1.184-2.52-2.544-2.52-4.08s.472-2.776 1.416-3.72c.944-.944 2.12-1.416 3.528-1.416.736 0 1.424.128 2.064.384-1.024 1.088-1.536 2.24-1.536 3.456 0 1.216.336 2.192 1.008 2.928.672.736 1.584 1.104 2.736 1.104 1.152 0 2.12-.296 2.904-.888.784-.592 1.176-1.36 1.176-2.304a4.13 4.13 0 0 0-.816-2.52 8.457 8.457 0 0 0-2.04-1.944c-.816-.56-1.704-1.192-2.664-1.896a37.894 37.894 0 0 1-2.664-2.136c-.816-.72-1.496-1.632-2.04-2.736-.544-1.104-.816-2.312-.816-3.624 0-2.272.936-4.136 2.808-5.592 1.872-1.456 4.208-2.184 7.008-2.184s4.848.544 6.144 1.632c1.296 1.088 1.944 2.36 1.944 3.816s-.456 2.696-1.368 3.72c-.912 1.024-2.088 1.536-3.528 1.536-.704 0-1.504-.144-2.4-.432a6.56 6.56 0 0 0 1.632-2.088c.384-.784.576-1.56.576-2.328 0-.768-.32-1.416-.96-1.944-.64-.528-1.408-.792-2.304-.792-.896 0-1.696.296-2.4.888z" fill="currentColor"/>
</svg>
