<?xml version="1.0" standalone="no"?><!DOCTYPE svg PUBLIC "-//W3C//DTD SVG 1.1//EN" "http://www.w3.org/Graphics/SVG/1.1/DTD/svg11.dtd"><svg t="1592625339845" class="icon" viewBox="0 0 1024 1024" version="1.1" xmlns="http://www.w3.org/2000/svg" p-id="5882" xmlns:xlink="http://www.w3.org/1999/xlink" width="200" height="200"><defs><style type="text/css"></style></defs><path d="M117.76 862.08c22.058667 24.789333 53.632 35.882667 91.605333 35.882667 41.6 0 91.008-13.610667 143.914667-36.693334a381.738667 381.738667 0 0 0 158.250667 34.602667 383.402667 383.402667 0 0 0 196.949333-54.698667 380.373333 380.373333 0 0 0 175.232-235.306666 379.904 379.904 0 0 0-6.954667-209.408c55.893333-95.402667 74.794667-181.888 28.672-233.813334-28.202667-31.744-67.413333-46.549333-109.866666-41.941333-35.456 3.84-71.936 21.376-108.714667 50.816a380.672 380.672 0 0 0-371.712 12.032 380.458667 380.458667 0 0 0-175.317333 235.306667 379.392 379.392 0 0 0 13.056 227.2c-45.44 51.370667-87.637333 156.885333-35.114667 216.021333z m63.829333-56.661333c-9.258667-10.410667 0.128-45.653333 16.085334-75.093334a384.384 384.384 0 0 0 66.773333 74.197334c-43.690667 12.885333-73.045333 12.074667-82.858667 0.896z m619.392-220.373334a295.594667 295.594667 0 0 1-136.277333 182.826667 298.581333 298.581333 0 0 1-153.173333 42.624c-18.005333 0-35.541333-2.133333-52.778667-5.205333a1349.418667 1349.418667 0 0 0 188.288-140.458667c60.202667-53.461333 116.138667-112.042667 162.261333-170.496a296.064 296.064 0 0 1-8.32 90.709333z m3.882667-379.605333c15.189333-1.408 26.965333 2.730667 36.736 13.781333 9.856 11.136 7.210667 40.362667-10.752 82.304a386.517333 386.517333 0 0 0-68.992-79.061333c18.389333-11.178667 33.109333-15.914667 43.008-17.024z m-582.272 234.24a295.722667 295.722667 0 0 1 136.32-182.869333 298.410667 298.410667 0 0 1 153.130667-42.624c105.514667 0 200.917333 54.314667 255.274666 145.28 5.546667 9.301333 10.453333 18.773333 14.976 28.458666-41.429333 61.482667-103.808 134.826667-191.914666 213.077334-88.021333 78.208-168.192 131.498667-234.154667 165.376a297.728 297.728 0 0 1-99.968-101.162667 295.808 295.808 0 0 1-33.664-225.536z" p-id="5883" fill="#5a67d8"></path></svg>