<?xml version="1.0" encoding="utf-8"?>
<svg width="90px" height="50px" viewBox="0 0 90 50" version="1.1" xmlns:xlink="http://www.w3.org/1999/xlink" xmlns="http://www.w3.org/2000/svg">
  <desc>Created with Lunacy</desc>
  <g id="u2pier" fill="#5A67D8">
    <path d="M27.958 38.7373Q28.6875 38.9043 29.4434 38.9043Q30.3926 38.9043 31.2627 38.5879Q32.1328 38.2715 32.8008 37.6914Q33.4863 37.1113 33.873 36.3115Q34.2598 35.5117 34.2598 34.5449Q34.2598 33.5957 33.8027 32.3125L33.6973 32.2422Q32.8008 33.2441 31.9658 33.6572Q31.1309 34.0703 30.1816 34.0703Q29.6367 34.0703 29.0479 33.9736Q28.459 33.877 27.457 33.666Q25.541 33.2617 24.1699 33.2617Q22.957 33.2617 21.9727 33.5254Q22.5352 32.5059 23.3789 31.6094Q24.8555 30.0098 27.4219 28.0762Q28.1777 27.5137 29.6543 26.3535Q30.9023 25.3516 31.8604 24.4375Q32.8184 23.5234 33.5215 22.5918Q35.1738 20.3945 35.1738 18.0215Q35.1738 16.4922 34.6641 15.2705Q34.1543 14.0488 33.2051 13.1875Q32.2734 12.3438 30.9902 11.8955Q29.707 11.4473 28.1777 11.4473Q26.4023 11.4473 24.9785 11.9746Q23.5547 12.502 22.5527 13.4336Q21.6211 14.3125 21.1201 15.4111Q20.6191 16.5098 20.6191 17.5996Q20.6191 19.3223 21.3926 20.3594Q21.7441 20.834 22.2188 21.0801Q22.6934 21.3262 23.2207 21.3262Q23.8887 21.3262 24.6094 21.001Q25.3301 20.6758 25.9453 20.1133L25.9453 19.9727Q25.1895 19.5156 24.7061 18.5752Q24.2227 17.6348 24.2227 16.3867Q24.2227 15.8066 24.4336 15.2617Q24.6445 14.7168 25.0137 14.3125Q25.3828 13.9082 25.9189 13.6885Q26.4551 13.4688 27.0703 13.4688Q28.4238 13.4688 29.127 14.7168Q29.7598 15.8594 29.7598 17.916Q29.7598 19.3047 29.2764 20.5967Q28.793 21.8887 27.8965 23.1719Q27.1582 24.2441 26.2354 25.2285Q25.3125 26.2129 23.7832 27.7246Q23.0273 28.4453 21.5859 29.8867Q20.4668 31.0058 19.6713 32.0594Q19.6795 32.0363 19.6875 32.0137L18.1758 32.0137Q17.7539 33.5078 17.0508 34.2988Q16.2598 35.1953 15.2578 35.1953Q14.4844 35.1953 14.1328 34.8965Q13.7813 34.5977 13.7813 33.8594Q13.7813 33.2266 13.9395 32.6992L16.5234 20.4648L11.3379 20.4648L8.89453 32.0137Q8.41992 33.543 7.78711 34.2988Q6.99609 35.1953 6.01172 35.1953Q4.93945 35.1953 4.93945 33.7188Q4.93945 33.2441 5.04492 32.6992L7.62891 20.4648L2.44336 20.4648L0 32.0137Q-0.28125 33.3496 -0.28125 34.3691Q-0.28125 36.5313 0.84375 37.6563Q1.8457 38.6758 3.56836 38.6758Q5.00977 38.6758 6.11719 38.0781Q7.66406 37.2344 8.89453 35.2656Q9.08789 36.9531 10.002 37.8145Q10.916 38.6758 12.4629 38.6758Q13.6582 38.6758 14.7305 38.2539Q16.1895 37.6738 17.3496 36.3555Q17.6035 36.0593 17.8434 35.724Q17.7363 36.2808 17.7363 36.8652Q17.7363 37.6563 17.9473 38.5L18.0879 38.5Q19.1426 37.9375 20.1182 37.7002Q21.0938 37.4629 22.0781 37.4629Q22.9746 37.4629 23.8359 37.6475Q24.6973 37.832 25.9102 38.1836Q27.2285 38.5703 27.958 38.7373ZM57.6387 18.2939Q58.166 18.5137 58.7461 18.5137Q59.3262 18.5137 59.8535 18.2939Q60.3809 18.0742 60.7852 17.6875Q61.1895 17.3184 61.4092 16.791Q61.6289 16.2637 61.6289 15.6836Q61.6289 15.1035 61.4092 14.5762Q61.1895 14.0488 60.7852 13.6445Q60.3809 13.2402 59.8535 13.0205Q59.3262 12.8008 58.7461 12.8008Q58.166 12.8008 57.6387 13.0205Q57.1113 13.2402 56.7246 13.6445Q56.3379 14.0488 56.1182 14.5762Q55.8984 15.1035 55.8984 15.6836Q55.8984 16.2637 56.1182 16.791Q56.3379 17.3184 56.7246 17.6875Q57.1113 18.0742 57.6387 18.2939ZM38.6367 19.1289L43.8223 19.1289L43.2422 21.8359Q45.0703 20.2891 47.4434 20.2891Q49.4648 20.2891 50.5723 21.5195Q51.8379 22.9609 51.8379 25.9668Q51.8379 28.8672 51.0996 31.416Q50.168 34.668 48.3926 36.4609Q46.2129 38.6758 42.9785 38.6758Q41.7305 38.6758 40.9219 38.2891Q40.3066 38.0078 39.9199 37.3926L38.0566 46.1641L32.625 47.4648L38.6367 19.1289ZM67.5 38.6758Q64.8457 38.6758 63.4043 37.3398Q62.5853 36.5773 62.2049 35.3762Q61.8391 35.9082 61.4355 36.3555Q60.2051 37.6738 58.6582 38.2539Q57.5332 38.6758 56.3027 38.6758Q54.5801 38.6758 53.5781 37.6563Q52.4531 36.5313 52.4531 34.3691Q52.4531 33.3496 52.7344 32.0137L55.1777 20.4648L60.3633 20.4648L57.7793 32.6992Q57.6387 33.1563 57.6387 33.8594Q57.6387 34.5977 57.9814 34.8965Q58.3242 35.1953 59.0977 35.1953Q59.625 35.1953 60.126 34.958Q60.627 34.7207 61.0488 34.2988Q61.5282 33.8195 61.8768 33.166Q61.875 33.0652 61.875 32.9629Q61.875 31.8555 62.0947 30.502Q62.3145 29.1484 62.7539 27.7949Q63.2461 26.2832 64.0107 24.9297Q64.7754 23.5762 65.7949 22.5391Q68.1504 20.1484 71.5957 20.1484Q73.793 20.1484 74.7949 21.2031Q75.5684 22.0293 75.5684 23.5938Q75.5684 25.123 74.9004 26.4678Q74.2324 27.8125 73.0547 28.8496Q71.877 29.8691 70.3828 30.4756Q68.8887 31.082 67.2891 31.1875Q67.2012 32.1016 67.2012 32.6289Q67.2012 34.3867 67.8691 35.0547Q68.4492 35.6523 69.8027 35.6523Q71.7539 35.6523 73.3711 34.5977Q74.0566 34.1582 74.6895 33.5518Q75.3203 32.9472 76.1608 32.0194L78.6094 20.4648L83.7949 20.4648L83.3379 22.6973Q84.5684 21.6074 85.3418 21.1504Q86.5371 20.4648 87.6797 20.4648Q88.8398 20.4648 89.543 21.291Q89.8594 21.6602 90.0176 22.1436Q90.1758 22.627 90.1758 23.1719Q90.1758 23.6641 90.0176 24.1211Q89.8594 24.5781 89.543 24.9473Q89.1914 25.334 88.6904 25.5625Q88.1895 25.791 87.5742 25.791Q87.0996 25.791 86.8184 25.6328Q86.5371 25.4746 86.3789 25.1758Q86.2383 24.877 86.1855 24.5957Q86.0273 23.8398 85.8691 23.5938Q85.7461 23.418 85.4824 23.418Q84.7266 23.418 84.1992 23.7344Q83.6719 24.0508 82.8633 24.7891L79.9805 38.4648L74.7949 38.4648L75.63 34.5243Q74.6214 35.7202 73.4766 36.6016Q70.752 38.6758 67.5 38.6758ZM67.5703 29.4648Q68.5723 29.3945 69.5215 28.8848Q70.4707 28.375 71.209 27.5488Q71.9473 26.7051 72.3691 25.6592Q72.791 24.6133 72.791 23.5234Q72.791 22.8027 72.5889 22.4248Q72.3867 22.0469 71.8945 22.0469Q71.2441 22.0469 70.585 22.6797Q69.9258 23.3125 69.3105 24.4199Q68.748 25.457 68.291 26.7754Q67.834 28.0938 67.5703 29.4648ZM41.8711 35.5469Q43.6113 35.5469 44.8594 33.7715Q45.8438 32.3828 46.4414 29.8691Q46.916 27.8477 46.916 25.8613Q46.916 24.0859 46.2656 23.3301Q45.8438 22.873 45.1055 22.873Q44.4551 22.873 43.7871 23.3301Q43.1191 23.7871 42.627 24.6484L40.5 34.7207Q40.623 35.0723 40.9658 35.3096Q41.3086 35.5469 41.8711 35.5469Z" />
  </g>
</svg>